<?xml version="1.0" encoding="UTF-8" standalone="no"?>
<svg xmlns="http://www.w3.org/2000/svg" xmlns:xlink="http://www.w3.org/1999/xlink" viewBox="0 0 256 256" width="256" height="256">
  <defs>
    <linearGradient id="shieldGrad" x1="0%" y1="0%" x2="0%" y2="100%">
      <stop offset="0%" stop-color="#9a0a30"/>
      <stop offset="50%" stop-color="#800020"/>
      <stop offset="100%" stop-color="#5a0016"/>
    </linearGradient>
    <linearGradient id="innerShieldGrad" x1="0%" y1="0%" x2="0%" y2="100%">
      <stop offset="0%" stop-color="#a01035"/>
      <stop offset="100%" stop-color="#700018"/>
    </linearGradient>
    <radialGradient id="glowGrad" cx="50%" cy="35%" r="50%">
      <stop offset="0%" stop-color="#ff6080" stop-opacity="0.15"/>
      <stop offset="100%" stop-color="#800020" stop-opacity="0"/>
    </radialGradient>
    <linearGradient id="badgeGrad" x1="0%" y1="0%" x2="0%" y2="100%">
      <stop offset="0%" stop-color="#f5a623"/>
      <stop offset="100%" stop-color="#d4841a"/>
    </linearGradient>
    <filter id="dropShadow" x="-20%" y="-20%" width="140%" height="140%">
      <feDropShadow dx="0" dy="2" stdDeviation="4" flood-color="#400010" flood-opacity="0.35"/>
    </filter>
    <filter id="badgeShadow" x="-30%" y="-30%" width="160%" height="160%">
      <feDropShadow dx="0" dy="1" stdDeviation="2" flood-color="#000000" flood-opacity="0.3"/>
    </filter>
    <path id="schoolA" d="M 0,47.85 H 224.681 V 0 H 0 Z"/>
    <mask id="schoolMask" fill="#ffffff">
      <use xlink:href="#schoolA"/>
    </mask>
  </defs>

  <!-- Shield -->
  <path d="M128 16 C128 16, 220 32, 228 36 L228 140 C228 200, 182 240, 128 256 C74 240, 28 200, 28 140 L28 36 C36 32, 128 16, 128 16 Z"
        fill="url(#shieldGrad)" filter="url(#dropShadow)"/>
  <path d="M128 26 C128 26, 212 40, 218 44 L218 140 C218 194, 176 230, 128 244 C80 230, 38 194, 38 140 L38 44 C44 40, 128 26, 128 26 Z"
        fill="url(#innerShieldGrad)" opacity="0.4"/>
  <path d="M128 26 C128 26, 212 40, 218 44 L218 140 C218 194, 176 230, 128 244 C80 230, 38 194, 38 140 L38 44 C44 40, 128 26, 128 26 Z"
        fill="url(#glowGrad)"/>

  <!-- Network lines -->
  <g opacity="0.2" stroke="#ffc0d0" stroke-width="1">
    <line x1="128" y1="125" x2="75" y2="75"/>
    <line x1="128" y1="125" x2="181" y2="75"/>
    <line x1="128" y1="125" x2="70" y2="175"/>
    <line x1="128" y1="125" x2="186" y2="175"/>
    <line x1="128" y1="125" x2="128" y2="60"/>
    <line x1="75" y1="75" x2="128" y2="60"/>
    <line x1="181" y1="75" x2="128" y2="60"/>
  </g>
  <g opacity="0.3" fill="#ffa0b0">
    <circle cx="75" cy="75" r="3"/>
    <circle cx="181" cy="75" r="3"/>
    <circle cx="128" cy="60" r="3"/>
    <circle cx="70" cy="175" r="3"/>
    <circle cx="186" cy="175" r="3"/>
  </g>

  <!-- School logo -->
  <g transform="translate(76, 85) scale(1.90)">
    <g fill="none" fill-rule="evenodd">
      <path fill="#ffffff"
        d="m 24.394,34.769 3.545,11.409 a 14.927,14.927 0 0 0 3.773,-2.513 L 25.1,34.325 a 6.38,6.38 0 0 1 -0.706,0.444 m -1.879,0.65 -0.172,12.297 a 18.271,18.271 0 0 0 4.59,-1.107 L 23.39,35.201 a 6.06,6.06 0 0 1 -0.874,0.218 m 3.413,-1.806 6.568,9.277 a 15.343,15.343 0 0 0 2.464,-3.508 l -8.52,-6.352 a 6.84,6.84 0 0 1 -0.512,0.583 M 17.02,26.008 15.828,25.12 c -0.116,0.373 -0.212,0.768 -0.29,1.181 l 1.12,0.38 c 0.107,-0.238 0.228,-0.463 0.361,-0.673 m 3.478,9.464 -4.019,12 c 1.118,0.23 2.26,0.357 3.414,0.379 0.46,0 0.914,-0.013 1.36,-0.04 l 0.173,-12.3 a 8.378,8.378 0 0 1 -0.928,-0.04 m -5.108,-8.073 c -0.02,0.2 -0.033,0.405 -0.042,0.615 -0.007,0.181 0.009,0.37 0.03,0.533 h 0.792 c 0.03,-0.292 0.077,-0.572 0.14,-0.836 z m -0.756,4.599 -12.589,3.967 a 21.163,21.163 0 0 0 2.962,4.6 l 10.46,-7.449 a 6.638,6.638 0 0 1 -0.833,-1.118 m 3.724,2.997 -7.642,10.31 a 19.99,19.99 0 0 0 4.699,1.918 L 19.405,35.299 A 8.507,8.507 0 0 1 18.357,34.994 M 13.678,26.817 0.328,22.288 c -0.174,1.2 -0.28,2.444 -0.315,3.729 -0.03,0.855 -0.01,1.7 0.057,2.529 h 13.563 a 11.522,11.522 0 0 1 0.045,-1.729 m 2.608,7.049 -10.554,7.516 a 21.059,21.059 0 0 0 4.047,3.361 l 7.56,-10.2 A 7.26,7.26 0 0 1 16.286,33.866 M 18.346,18.969 13.426,3.13 A 24.952,24.952 0 0 0 7.478,7.55 l 9.105,12.86 a 9.985,9.985 0 0 1 1.763,-1.441 m 9.04,7.871 7.85,-2.472 A 11.73,11.73 0 0 0 33.16,21.85 l -6.101,4.344 c 0.126,0.215 0.234,0.432 0.327,0.645 m -0.346,5.284 8.394,6.258 c 0.506,-1.166 0.9,-2.43 1.173,-3.785 L 27.36,31.46 a 7.076,7.076 0 0 1 -0.321,0.664 m 0.659,-1.695 9.099,3.084 c 0.098,-0.655 0.17,-1.328 0.215,-2.022 a 13.61,13.61 0 0 0 -0.045,-1.86 h -9.13 c -0.03,0.268 -0.076,0.535 -0.14,0.798 m -9.455,-5.792 -1.305,-1.842 a 8.31,8.31 0 0 0 -0.709,1.27 l 1.459,1.086 c 0.177,-0.187 0.363,-0.357 0.555,-0.514 m 8.188,0.673 5.865,-4.178 a 11.699,11.699 0 0 0 -2.573,-1.47 l -3.803,5.13 c 0.186,0.165 0.355,0.338 0.51,0.518 M 21.57,23.327 h 0.026 l 0.055,-3.933 c -0.611,0.198 -1.215,0.452 -1.793,0.771 l 1.004,3.238 a 4.03,4.03 0 0 1 0.708,-0.076 m -1.75,0.387 -0.914,-2.945 a 8.216,8.216 0 0 0 -1.266,1.135 l 1.507,2.129 c 0.225,-0.124 0.45,-0.23 0.673,-0.319 m 5.218,0.442 3.613,-4.873 a 11.155,11.155 0 0 0 -2.583,-0.454 l -1.676,5.006 c 0.23,0.095 0.445,0.204 0.646,0.32 m -1.683,-0.65 1.566,-4.68 -0.084,0.004 c -0.668,0.028 -1.377,0.114 -2.093,0.269 l -0.06,4.29 c 0.233,0.029 0.457,0.069 0.671,0.117 M 13.759,29.63 H 0.183 a 21.214,21.214 0 0 0 1.42,5.336 l 12.55,-3.955 a 7.565,7.565 0 0 1 -0.394,-1.38 m 24.899,-1.085 h 18.817 c -0.063,-2.948 -0.733,-6.195 -2.029,-9.41 l -17.958,5.659 a 13.68,13.68 0 0 1 1.17,3.75 M 14.329,24.003 2.364,15.083 a 27.426,27.426 0 0 0 -1.86,6.12 l 13.338,4.525 a 11.12,11.12 0 0 1 0.487,-1.725 M 25.52,17.038 31.114,0.33 A 36.957,36.957 0 0 0 26.131,0 c -1.05,0 -2.092,0.059 -3.122,0.174 l -0.24,17.116 c 0.849,-0.151 1.765,-0.24 2.75,-0.252 m 11.453,6.782 18.05,-5.689 A 30.988,30.988 0 0 0 49.767,10.024 L 34.623,20.81 c 0.904,0.88 1.7,1.892 2.349,3.01 M 33.796,20.064 49.019,9.223 A 29.524,29.524 0 0 0 41.597,3.642 L 30.822,18.18 a 13.66,13.66 0 0 1 2.974,1.884 M 21.677,17.53 21.918,0.32 A 26.6,26.6 0 0 0 14.41,2.63 l 4.904,15.785 c 0.712,-0.36 1.497,-0.658 2.363,-0.886 M 29.785,17.753 40.612,3.145 C 38.101,1.933 35.3,1.018 32.206,0.497 L 26.657,17.07 c 1.062,0.084 2.114,0.318 3.128,0.684 m -2.051,10.114 c 0.058,0.245 0.098,0.473 0.12,0.678 h 8.966 a 12.138,12.138 0 0 0 -1.05,-3.21 z M 15.848,21.255 6.716,8.355 a 24.803,24.803 0 0 0 -3.883,5.722 l 11.939,8.902 c 0.296,-0.6 0.653,-1.179 1.076,-1.724"
        mask="url(#schoolMask)"/>
    </g>
  </g>

  <!-- Connecting badge (orange circle with three dots) -->
  <g filter="url(#badgeShadow)">
    <circle cx="198" cy="192" r="57" fill="#ffffff" opacity="0.95"/>
    <circle cx="198" cy="192" r="54" fill="url(#badgeGrad)"/>
  </g>
</svg>
